<?xml version="1.0" encoding="UTF-8"?>
<svg width="16px" height="16px" viewBox="0 0 16 16" version="1.1" xmlns="http://www.w3.org/2000/svg" xmlns:xlink="http://www.w3.org/1999/xlink">
    <title>搜索</title>
    <defs>
        <filter id="filter-1">
            <feColorMatrix in="SourceGraphic" type="matrix" values="0 0 0 0 1.000000 0 0 0 0 1.000000 0 0 0 0 1.000000 0 0 0 1.000000 0"></feColorMatrix>
        </filter>
    </defs>
    <g id="页面-1" stroke="none" stroke-width="1" fill="none" fill-rule="evenodd" fill-opacity="0.6">
        <g id="搜索" transform="translate(-204.000000, -166.000000)" filter="url(#filter-1)">
            <g transform="translate(204.000000, 166.000000)">
                <path d="M15.5598695,15.5598596 C14.9732047,16.1467135 14.0217204,16.1467135 13.4348637,15.5598596 L10.7828179,12.9077464 C9.69247037,13.6067301 8.40350699,14.0240855 7.01209204,14.0240855 C3.13949055,14.0240855 0,10.8847058 0,7.01202673 C0,3.13934765 3.13949055,0 7.01209204,0 C10.8848695,0 14.0241681,3.13936366 14.0241681,7.01202673 C14.0241681,8.40338707 13.6068908,9.69234435 12.9079197,10.7828627 L15.5598695,13.4347999 C16.1467102,14.0216378 16.1467102,14.9731176 15.5598695,15.5598596 L15.5598695,15.5598596 Z M7.01209204,1.46719077 C3.94992009,1.46719077 1.46729373,3.94970935 1.46729373,7.01204273 C1.46729373,10.0742961 3.9498241,12.5568147 7.01209204,12.5568147 C10.074424,12.5568147 12.5568903,10.0742961 12.5568903,7.01204273 C12.5568903,3.94970935 10.074424,1.46719077 7.01209204,1.46719077 L7.01209204,1.46719077 Z" id="形状" fill="#FFFFFF" fill-rule="nonzero"></path>
            </g>
        </g>
    </g>
</svg>